# xmcd
#
# Track frame offsets:
#   183
#   12918
#   25925
#   35468
#   43900
#   51950
#   64778
#   74550
#   86053
#   99473
#   108100
#   123413
#   131998
#   142060
#   155695
#   163400
#
# Disc length: 2356 seconds
#
# Revision: 5
# Processed by: cddbd v1.5.1PL0 Copyright (c) Steve Scherf et al.
# Submitted via: Media_Universe 3.0
#
DISCID=ee093210
DTITLE=Johnny Cash, Hank Williams, Marty Robbins - Country - 16 Golden Hits
DYEAR=1900
DGENRE=Country
TTITLE0=Johnny Cash - Folsom prison blues
TTITLE1=Hank Williams - Calling you
TTITLE2=Marty Robbins - Saddle Tramp
TTITLE3=Johnny Cash - Guess things happen that way
TTITLE4=Marty Robbins - My love
TTITLE5=Hank Williams - How can you refuse him now
TTITLE6=Johnny Cash - Just about me
TTITLE7=Marty Robbins - Song of the bandit
TTITLE8=Hank Williams - Be careful of stones that you throw
TTITLE9=Johnny Cash - Katy too
TTITLE10=Marty Robbins - I've got no use for the woman
TTITLE11=Johnny Cash - I forgot to remember to forget
TTITLE12=Marty Robbins - Five brothers
TTITLE13=Hank Williams - I dreamed about mama last night
TTITLE14=Johnny Cash - Come in stranger
TTITLE15=Marty Robbins - She was young and she was pretty
EXTD=
EXTT0=
EXTT1=
EXTT2=
EXTT3=
EXTT4=
EXTT5=
EXTT6=
EXTT7=
EXTT8=
EXTT9=
EXTT10=
EXTT11=
EXTT12=
EXTT13=
EXTT14=
EXTT15=
PLAYORDER=
